<?xml version="1.0" encoding="UTF-8" standalone="no"?>
<svg
   xmlns:dc="http://purl.org/dc/elements/1.1/"
   xmlns:cc="http://creativecommons.org/ns#"
   xmlns:rdf="http://www.w3.org/1999/02/22-rdf-syntax-ns#"
   xmlns:svg="http://www.w3.org/2000/svg"
   xmlns="http://www.w3.org/2000/svg"
   xmlns:sodipodi="http://sodipodi.sourceforge.net/DTD/sodipodi-0.dtd"
   xmlns:inkscape="http://www.inkscape.org/namespaces/inkscape"
   version="1.1"
   id="svg28"
   xml:space="preserve"
   width="200"
   height="200"
   viewBox="0 0 200 200"
   sodipodi:docname="tunnus.svg"
   inkscape:version="1.0beta2 (2b71d25, 2019-12-03)"><metadata
     id="metadata34"><rdf:RDF><cc:Work
         rdf:about=""><dc:format>image/svg+xml</dc:format><dc:type
           rdf:resource="http://purl.org/dc/dcmitype/StillImage" /><dc:title></dc:title></cc:Work></rdf:RDF></metadata><defs
     id="defs32"><clipPath
       clipPathUnits="userSpaceOnUse"
       id="clipPath44"><path
         d="M 0,595.276 H 841.89 V 0 H 0 Z"
         id="path42"
         inkscape:connector-curvature="0" /></clipPath></defs><sodipodi:namedview
     pagecolor="#ffffff"
     bordercolor="#666666"
     inkscape:document-rotation="0"
     borderopacity="1"
     objecttolerance="10"
     gridtolerance="10"
     guidetolerance="10"
     inkscape:pageopacity="0"
     inkscape:pageshadow="2"
     inkscape:window-width="1188"
     inkscape:window-height="689"
     id="namedview30"
     showgrid="false"
     inkscape:zoom="0.60350155"
     inkscape:cx="422.0723"
     inkscape:cy="309.02986"
     inkscape:window-x="0"
     inkscape:window-y="23"
     inkscape:window-maximized="0"
     inkscape:current-layer="g40" /><g
     id="g36"
     inkscape:groupmode="layer"
     inkscape:label="hsl_vaaka_musta_cmyk"
     transform="matrix(1.3333333,0,0,-1.3333333,0,793.70133)"><g
       id="g38"><g
         id="g40"
         clip-path="url(#clipPath44)"
         mask="none"><g
           style="fill:#000000"
           id="g46"
           transform="matrix(0.94509028,0,0,0.94507242,135.6989,515.46087)"><path
             d="M 0,0 C -0.335,0.017 -6.144,0.184 -9.074,5.089 -6.144,9.998 -0.335,10.17 0,10.179 4.775,10.17 8.243,8.027 8.243,5.089 8.243,2.151 4.775,0.017 0,0 m -12.985,-46.146 c -2.076,-2.093 -6.043,-1.139 -9.427,2.226 -0.228,0.251 -4.206,4.47 -2.823,10.011 5.537,1.397 9.775,-2.587 10.022,-2.813 3.373,-3.382 4.306,-7.341 2.228,-9.424 m -51.248,-21.22 c -2.936,0 -5.071,3.457 -5.083,8.228 0.012,0.343 0.196,6.144 5.083,9.091 4.907,-2.947 5.091,-8.748 5.1,-9.091 -0.009,-4.771 -2.143,-8.228 -5.1,-8.228 m -41.807,23.446 c -3.383,-3.365 -7.345,-4.319 -9.429,-2.226 -2.076,2.083 -1.149,6.042 2.231,9.424 0.244,0.226 4.476,4.21 10.021,2.813 1.39,-5.541 -2.588,-9.769 -2.823,-10.011 M -128.452,0 c -4.769,0.017 -8.242,2.151 -8.242,5.089 0,2.938 3.473,5.081 8.242,5.09 0.335,-0.009 6.144,-0.181 9.08,-5.09 -2.936,-4.905 -8.745,-5.072 -9.08,-5.089 m 12.983,56.334 c 2.078,2.092 6.046,1.138 9.423,-2.231 0.241,-0.239 4.219,-4.483 2.829,-10.024 -5.545,-1.39 -9.777,2.595 -10.021,2.825 -3.38,3.377 -4.313,7.345 -2.231,9.43 m 51.236,21.227 c 2.957,0 5.091,-3.469 5.1,-8.245 -0.009,-0.339 -0.193,-6.144 -5.1,-9.082 -4.887,2.938 -5.071,8.743 -5.083,9.082 0.012,4.776 2.147,8.245 5.083,8.245 m 41.821,-23.458 c 3.384,3.369 7.351,4.323 9.427,2.231 2.078,-2.085 1.145,-6.053 -2.228,-9.43 -0.247,-0.23 -4.485,-4.215 -10.022,-2.825 -1.383,5.541 2.595,9.785 2.823,10.024 m -8.184,-82.638 -33.637,-13.929 -33.622,13.929 -13.937,33.624 v 0.009 l 13.937,33.615 33.622,13.93 33.637,-13.93 13.937,-33.615 V 5.089 Z m 30.577,45.602 c -0.36,0 -7.048,-0.084 -12.131,-4.863 l -10.23,24.685 c 6.978,0.209 11.771,4.88 12.024,5.131 6.207,6.21 7.154,14.28 2.247,19.189 -4.913,4.901 -12.97,3.964 -19.179,-2.247 -0.259,-0.26 -4.932,-5.048 -5.141,-12.021 l -24.685,10.225 c 4.786,5.094 4.855,11.773 4.855,12.138 0,8.776 -5.027,15.15 -11.974,15.15 -6.927,0 -11.966,-6.374 -11.966,-15.15 0,-0.365 0.075,-7.044 4.868,-12.138 L -96.024,46.941 c -0.207,6.973 -4.88,11.761 -5.14,12.021 -6.209,6.211 -14.278,7.148 -19.172,2.247 -4.908,-4.909 -3.968,-12.979 2.234,-19.189 0.266,-0.251 5.046,-4.922 12.025,-5.131 l -10.225,-24.685 c -5.076,4.779 -11.771,4.863 -12.137,4.863 -8.772,0 -15.144,-5.039 -15.144,-11.978 0,-6.939 6.372,-11.97 15.144,-11.97 0.366,0 7.061,0.075 12.137,4.863 l 10.225,-24.684 c -6.979,-0.209 -11.759,-4.88 -12.018,-5.148 -6.209,-6.194 -7.149,-14.263 -2.241,-19.177 4.894,-4.897 12.963,-3.959 19.172,2.252 0.26,0.252 4.933,5.047 5.14,12.011 l 24.693,-10.22 c -4.793,-5.089 -4.868,-11.769 -4.868,-12.129 0,-8.788 5.033,-15.151 11.966,-15.151 6.947,0 11.974,6.363 11.974,15.151 0,0.36 -0.069,7.04 -4.855,12.129 l 24.685,10.22 c 0.209,-6.964 4.882,-11.759 5.141,-12.011 6.203,-6.211 14.266,-7.149 19.179,-2.252 4.907,4.914 3.96,12.983 -2.247,19.177 -0.253,0.268 -5.046,4.939 -12.024,5.148 l 10.23,24.684 c 5.083,-4.788 11.771,-4.863 12.131,-4.863 8.785,0 15.151,5.031 15.151,11.97 0,6.939 -6.366,11.978 -15.151,11.978"
             style="fill:#000000;fill-opacity:1;fill-rule:nonzero;stroke:none"
             id="path48"
             inkscape:connector-curvature="0" /></g><g
           id="g50"
           transform="translate(476.6641,288.6074)" /><g
           id="g54"
           transform="translate(560.4531,260.75)" /><g
           id="g58"
           transform="translate(606.3945,285.3262)" /><g
           id="g62"
           transform="translate(475.3672,355.7852)" /><g
           id="g66"
           transform="translate(537.083,307.7598)" /><g
           id="g70"
           transform="translate(590.0391,355.7852)" /><g
           id="g74"
           transform="translate(410.5,372.6094)" /><g
           id="g78"
           transform="translate(424.1816,372.6094)" /></g></g></g></svg>
